<svg id="visual" viewBox="0 0 960 540" width="960" height="540" xmlns="http://www.w3.org/2000/svg" xmlns:xlink="http://www.w3.org/1999/xlink" version="1.1"><path d="M0 120L14.5 117.3C29 114.7 58 109.3 87.2 103C116.3 96.7 145.7 89.3 174.8 88.3C204 87.3 233 92.7 262 99C291 105.3 320 112.7 349 114.5C378 116.3 407 112.7 436.2 107.2C465.3 101.7 494.7 94.3 523.8 91.7C553 89 582 91 611 101.8C640 112.7 669 132.3 698 135.8C727 139.3 756 126.7 785.2 128.5C814.3 130.3 843.7 146.7 872.8 160.2C902 173.7 931 184.3 945.5 189.7L960 195L960 0L945.5 0C931 0 902 0 872.8 0C843.7 0 814.3 0 785.2 0C756 0 727 0 698 0C669 0 640 0 611 0C582 0 553 0 523.8 0C494.7 0 465.3 0 436.2 0C407 0 378 0 349 0C320 0 291 0 262 0C233 0 204 0 174.8 0C145.7 0 116.3 0 87.2 0C58 0 29 0 14.5 0L0 0Z" fill="#36b796"></path><path d="M0 233L14.5 223.2C29 213.3 58 193.7 87.2 178.3C116.3 163 145.7 152 174.8 161.8C204 171.7 233 202.3 262 208.7C291 215 320 197 349 193.5C378 190 407 201 436.2 207.3C465.3 213.7 494.7 215.3 523.8 204.5C553 193.7 582 170.3 611 181.2C640 192 669 237 698 242.3C727 247.7 756 213.3 785.2 208.8C814.3 204.3 843.7 229.7 872.8 246.8C902 264 931 273 945.5 277.5L960 282L960 193L945.5 187.7C931 182.3 902 171.7 872.8 158.2C843.7 144.7 814.3 128.3 785.2 126.5C756 124.7 727 137.3 698 133.8C669 130.3 640 110.7 611 99.8C582 89 553 87 523.8 89.7C494.7 92.3 465.3 99.7 436.2 105.2C407 110.7 378 114.3 349 112.5C320 110.7 291 103.3 262 97C233 90.7 204 85.3 174.8 86.3C145.7 87.3 116.3 94.7 87.2 101C58 107.3 29 112.7 14.5 115.3L0 118Z" fill="#21a584"></path><path d="M0 271L14.5 267.3C29 263.7 58 256.3 87.2 247.3C116.3 238.3 145.7 227.7 174.8 230.5C204 233.3 233 249.7 262 256.8C291 264 320 262 349 268.2C378 274.3 407 288.7 436.2 291.3C465.3 294 494.7 285 523.8 266.2C553 247.3 582 218.7 611 235C640 251.3 669 312.7 698 319C727 325.3 756 276.7 785.2 265.8C814.3 255 843.7 282 872.8 300C902 318 931 327 945.5 331.5L960 336L960 280L945.5 275.5C931 271 902 262 872.8 244.8C843.7 227.7 814.3 202.3 785.2 206.8C756 211.3 727 245.7 698 240.3C669 235 640 190 611 179.2C582 168.3 553 191.7 523.8 202.5C494.7 213.3 465.3 211.7 436.2 205.3C407 199 378 188 349 191.5C320 195 291 213 262 206.7C233 200.3 204 169.7 174.8 159.8C145.7 150 116.3 161 87.2 176.3C58 191.7 29 211.3 14.5 221.2L0 231Z" fill="#009473"></path><path d="M0 449L14.5 453.5C29 458 58 467 87.2 465.2C116.3 463.3 145.7 450.7 174.8 445.3C204 440 233 442 262 446.5C291 451 320 458 349 463.3C378 468.7 407 472.3 436.2 475.2C465.3 478 494.7 480 523.8 476.5C553 473 582 464 611 459.5C640 455 669 455 698 458.5C727 462 756 469 785.2 474.3C814.3 479.7 843.7 483.3 872.8 480.7C902 478 931 469 945.5 464.5L960 460L960 334L945.5 329.5C931 325 902 316 872.8 298C843.7 280 814.3 253 785.2 263.8C756 274.7 727 323.3 698 317C669 310.7 640 249.3 611 233C582 216.7 553 245.3 523.8 264.2C494.7 283 465.3 292 436.2 289.3C407 286.7 378 272.3 349 266.2C320 260 291 262 262 254.8C233 247.7 204 231.3 174.8 228.5C145.7 225.7 116.3 236.3 87.2 245.3C58 254.3 29 261.7 14.5 265.3L0 269Z" fill="#008064"></path><path d="M0 541L14.5 541C29 541 58 541 87.2 541C116.3 541 145.7 541 174.8 541C204 541 233 541 262 541C291 541 320 541 349 541C378 541 407 541 436.2 541C465.3 541 494.7 541 523.8 541C553 541 582 541 611 541C640 541 669 541 698 541C727 541 756 541 785.2 541C814.3 541 843.7 541 872.8 541C902 541 931 541 945.5 541L960 541L960 458L945.5 462.5C931 467 902 476 872.8 478.7C843.7 481.3 814.3 477.7 785.2 472.3C756 467 727 460 698 456.5C669 453 640 453 611 457.5C582 462 553 471 523.8 474.5C494.7 478 465.3 476 436.2 473.2C407 470.3 378 466.7 349 461.3C320 456 291 449 262 444.5C233 440 204 438 174.8 443.3C145.7 448.7 116.3 461.3 87.2 463.2C58 465 29 456 14.5 451.5L0 447Z" fill="#006c55"></path></svg>