<svg width="460" height="146" viewBox="0 0 460 146" fill="none" xmlns="http://www.w3.org/2000/svg">
<path d="M40 42C40 40.8954 40.8954 40 42 40H418C419.105 40 420 40.8954 420 42V104C420 105.105 419.105 106 418 106H42C40.8954 106 40 105.105 40 104V42Z" fill="#404040"/>
<path d="M43 80C44.5274 79.8091 47.1065 77.8191 48.2222 76.7778C53.3906 71.9539 61.2003 69.2398 67.5 66C80.6066 59.2595 94.5725 51.6577 109 48C121.568 44.8137 134.334 46.1961 147.056 46.9444C157.841 47.5789 168.513 50.3525 179.222 52C189.186 53.533 199.967 55.529 209.444 59.0556C217.484 62.0469 225.804 65.0119 234 67.5C245.026 70.8473 255.255 75.7615 266.556 78.2222C290.623 83.4627 318.959 85.0242 343.056 79C361.619 74.3591 378.126 68.6042 394.667 59C400.492 55.6174 405.564 51.3311 411.056 47.5556C413.096 46.1527 416.979 44.0413 418 42" stroke="white" stroke-width="3" stroke-linecap="round"/>
<path d="M43 101C44.5274 100.809 47.1065 98.8191 48.2222 97.7778C53.3906 92.9539 61.2003 90.2398 67.5 87C80.6066 80.2595 94.5725 72.6577 109 69C121.568 65.8137 134.334 67.1961 147.056 67.9444C157.841 68.5789 168.513 71.3525 179.222 73C189.186 74.533 199.967 76.529 209.444 80.0556C217.484 83.0469 225.804 86.0119 234 88.5C245.026 91.8473 255.255 96.7615 266.556 99.2222C290.623 104.463 318.959 106.024 343.056 100C361.619 95.3591 378.126 89.6042 394.667 80C400.492 76.6174 405.564 72.3311 411.056 68.5556C413.096 67.1527 416.979 65.0413 418 63" stroke="white" stroke-width="3" stroke-linecap="round"/>
<path d="M418 42.7766C417.773 44.8204 417.399 46.9169 417.399 49.0092C417.399 51.2759 417.399 53.5425 417.399 55.8092C417.399 57.4717 417.196 59.3813 417.558 61.0072C417.646 61.4027 417.632 62.7172 418 62.9011" stroke="white" stroke-width="3" stroke-linecap="round"/>
<path d="M42.6924 80.6228C42.6924 81.5993 43.2867 82.4842 43.5101 83.4095C43.8815 84.9482 44.3444 86.4745 44.3444 88.0652C44.3444 90.0288 44.4534 92.0278 44.3444 93.9891C44.3108 94.5938 43.892 95.2383 43.6769 95.7913C43.4082 96.4823 43.4624 97.3305 43.2097 98.0523C42.9625 98.7588 43.143 101.045 43.143 100.297" stroke="white" stroke-width="3" stroke-linecap="round"/>
<path d="M42 41H418V39H42V41ZM419 42V104H421V42H419ZM418 105H42V107H418V105ZM41 104V42H39V104H41ZM42 105C41.4477 105 41 104.552 41 104H39C39 105.657 40.3431 107 42 107V105ZM419 104C419 104.552 418.552 105 418 105V107C419.657 107 421 105.657 421 104H419ZM418 41C418.552 41 419 41.4477 419 42H421C421 40.3431 419.657 39 418 39V41ZM42 39C40.3431 39 39 40.3431 39 42H41C41 41.4477 41.4477 41 42 41V39Z" fill="white" fill-opacity="0.1"/>
<rect x="40" y="8" width="55.36" height="26" rx="2" fill="#404040"/>
<rect x="40.5" y="8.5" width="54.36" height="25" rx="1.5" stroke="black" stroke-opacity="0.14902"/>
<path d="M49.3438 18C49.2969 17.6042 49.1068 17.2969 48.7734 17.0781C48.4401 16.8594 48.0313 16.75 47.5469 16.75C47.1927 16.75 46.8828 16.8073 46.6172 16.9219C46.3542 17.0365 46.1484 17.194 46 17.3945C45.8542 17.5951 45.7813 17.8229 45.7813 18.0781C45.7813 18.2917 45.832 18.4753 45.9336 18.6289C46.0378 18.7799 46.1706 18.9062 46.332 19.0078C46.4935 19.1068 46.6628 19.1888 46.8398 19.2539C47.0169 19.3164 47.1797 19.3672 47.3281 19.4062L48.1406 19.625C48.349 19.6797 48.5807 19.7552 48.8359 19.8516C49.0938 19.9479 49.3398 20.0794 49.5742 20.2461C49.8112 20.4102 50.0065 20.6211 50.1602 20.8789C50.3138 21.1367 50.3906 21.4531 50.3906 21.8281C50.3906 22.2604 50.2773 22.651 50.0508 23C49.8268 23.349 49.4987 23.6263 49.0664 23.832C48.6367 24.0378 48.1146 24.1406 47.5 24.1406C46.9271 24.1406 46.431 24.0482 46.0117 23.8633C45.5951 23.6784 45.2669 23.4206 45.0273 23.0898C44.7904 22.7591 44.6563 22.375 44.625 21.9375H45.625C45.651 22.2396 45.7526 22.4896 45.9297 22.6875C46.1094 22.8828 46.3359 23.0286 46.6094 23.125C46.8854 23.2187 47.1823 23.2656 47.5 23.2656C47.8698 23.2656 48.2018 23.2057 48.4961 23.0859C48.7904 22.9635 49.0234 22.7943 49.1953 22.5781C49.3672 22.3594 49.4531 22.1042 49.4531 21.8125C49.4531 21.5469 49.3789 21.3307 49.2305 21.1641C49.082 20.9974 48.8867 20.862 48.6445 20.7578C48.4023 20.6536 48.1406 20.5625 47.8594 20.4844L46.875 20.2031C46.25 20.0234 45.7552 19.7669 45.3906 19.4336C45.026 19.1003 44.8438 18.6641 44.8438 18.125C44.8438 17.6771 44.9648 17.2865 45.207 16.9531C45.4518 16.6172 45.7799 16.3568 46.1914 16.1719C46.6055 15.9844 47.0677 15.8906 47.5781 15.8906C48.0938 15.8906 48.5521 15.9831 48.9531 16.168C49.3542 16.3503 49.6719 16.6003 49.9062 16.918C50.1432 17.2357 50.2682 17.5964 50.2813 18H49.3438ZM54.374 24.125C53.7959 24.125 53.2972 23.9974 52.8779 23.7422C52.4613 23.4844 52.1396 23.125 51.9131 22.6641C51.6891 22.2005 51.5771 21.6615 51.5771 21.0469C51.5771 20.4323 51.6891 19.8906 51.9131 19.4219C52.1396 18.9505 52.4548 18.5833 52.8584 18.3203C53.2646 18.0547 53.7386 17.9219 54.2803 17.9219C54.5928 17.9219 54.9014 17.974 55.2061 18.0781C55.5107 18.1823 55.7881 18.3516 56.0381 18.5859C56.2881 18.8177 56.4873 19.125 56.6357 19.5078C56.7842 19.8906 56.8584 20.362 56.8584 20.9219V21.3125H52.2334V20.5156H55.9209C55.9209 20.1771 55.8532 19.875 55.7178 19.6094C55.585 19.3437 55.3949 19.1341 55.1475 18.9805C54.9027 18.8268 54.6136 18.75 54.2803 18.75C53.9131 18.75 53.5954 18.8411 53.3271 19.0234C53.0615 19.2031 52.8571 19.4375 52.7139 19.7266C52.5706 20.0156 52.499 20.3255 52.499 20.6562V21.1875C52.499 21.6406 52.5771 22.0247 52.7334 22.3398C52.8923 22.6523 53.1123 22.8906 53.3936 23.0547C53.6748 23.2161 54.0016 23.2969 54.374 23.2969C54.6162 23.2969 54.835 23.263 55.0303 23.1953C55.2282 23.125 55.3988 23.0208 55.542 22.8828C55.6852 22.7422 55.7959 22.5677 55.874 22.3594L56.7646 22.6094C56.6709 22.9115 56.5133 23.1771 56.292 23.4062C56.0706 23.6328 55.7972 23.8099 55.4717 23.9375C55.1462 24.0625 54.7803 24.125 54.374 24.125ZM60.6982 24.125C60.1357 24.125 59.6514 23.9922 59.2451 23.7266C58.8389 23.4609 58.5264 23.0951 58.3076 22.6289C58.0889 22.1628 57.9795 21.6302 57.9795 21.0312C57.9795 20.4219 58.0915 19.8841 58.3154 19.418C58.542 18.9492 58.8571 18.5833 59.2607 18.3203C59.667 18.0547 60.141 17.9219 60.6826 17.9219C61.1045 17.9219 61.4847 18 61.8232 18.1562C62.1618 18.3125 62.4391 18.5312 62.6553 18.8125C62.8714 19.0937 63.0055 19.4219 63.0576 19.7969H62.1357C62.0654 19.5234 61.9092 19.2812 61.667 19.0703C61.4274 18.8568 61.1045 18.75 60.6982 18.75C60.3389 18.75 60.0238 18.8437 59.7529 19.0312C59.4847 19.2161 59.2751 19.4779 59.124 19.8164C58.9756 20.1523 58.9014 20.5469 58.9014 21C58.9014 21.4635 58.9743 21.8672 59.1201 22.2109C59.2686 22.5547 59.4769 22.8216 59.7451 23.0117C60.016 23.2018 60.3337 23.2969 60.6982 23.2969C60.9378 23.2969 61.1553 23.2552 61.3506 23.1719C61.5459 23.0885 61.7113 22.9688 61.8467 22.8125C61.9821 22.6562 62.0785 22.4687 62.1357 22.25H63.0576C63.0055 22.6042 62.8766 22.9232 62.6709 23.207C62.4678 23.4883 62.1982 23.7122 61.8623 23.8789C61.529 24.043 61.141 24.125 60.6982 24.125ZM67.0146 18V18.7812H63.9053V18H67.0146ZM64.8115 16.5625H65.7334V22.2812C65.7334 22.5417 65.7712 22.737 65.8467 22.8672C65.9248 22.9948 66.0238 23.0807 66.1436 23.125C66.266 23.1667 66.3949 23.1875 66.5303 23.1875C66.6318 23.1875 66.7152 23.1823 66.7803 23.1719C66.8454 23.1589 66.8975 23.1484 66.9365 23.1406L67.124 23.9687C67.0615 23.9922 66.9743 24.0156 66.8623 24.0391C66.7503 24.0651 66.6084 24.0781 66.4365 24.0781C66.1761 24.0781 65.9209 24.0221 65.6709 23.9102C65.4235 23.7982 65.2178 23.6276 65.0537 23.3984C64.8923 23.1693 64.8115 22.8802 64.8115 22.5312V16.5625ZM68.4014 24V18H69.3232V24H68.4014ZM68.8701 17C68.6904 17 68.5355 16.9388 68.4053 16.8164C68.2777 16.694 68.2139 16.5469 68.2139 16.375C68.2139 16.2031 68.2777 16.056 68.4053 15.9336C68.5355 15.8112 68.6904 15.75 68.8701 15.75C69.0498 15.75 69.2035 15.8112 69.3311 15.9336C69.4613 16.056 69.5264 16.2031 69.5264 16.375C69.5264 16.5469 69.4613 16.694 69.3311 16.8164C69.2035 16.9388 69.0498 17 68.8701 17ZM73.4492 24.125C72.9076 24.125 72.4323 23.9961 72.0234 23.7383C71.6172 23.4805 71.2995 23.1198 71.0703 22.6562C70.8438 22.1927 70.7305 21.651 70.7305 21.0312C70.7305 20.4062 70.8438 19.8607 71.0703 19.3945C71.2995 18.9284 71.6172 18.5664 72.0234 18.3086C72.4323 18.0508 72.9076 17.9219 73.4492 17.9219C73.9909 17.9219 74.4648 18.0508 74.8711 18.3086C75.2799 18.5664 75.5977 18.9284 75.8242 19.3945C76.0534 19.8607 76.168 20.4062 76.168 21.0312C76.168 21.651 76.0534 22.1927 75.8242 22.6562C75.5977 23.1198 75.2799 23.4805 74.8711 23.7383C74.4648 23.9961 73.9909 24.125 73.4492 24.125ZM73.4492 23.2969C73.8607 23.2969 74.1992 23.1914 74.4648 22.9805C74.7305 22.7695 74.9271 22.4922 75.0547 22.1484C75.1823 21.8047 75.2461 21.4323 75.2461 21.0312C75.2461 20.6302 75.1823 20.2565 75.0547 19.9102C74.9271 19.5638 74.7305 19.2839 74.4648 19.0703C74.1992 18.8568 73.8607 18.75 73.4492 18.75C73.0378 18.75 72.6992 18.8568 72.4336 19.0703C72.168 19.2839 71.9714 19.5638 71.8438 19.9102C71.7161 20.2565 71.6523 20.6302 71.6523 21.0312C71.6523 21.4323 71.7161 21.8047 71.8438 22.1484C71.9714 22.4922 72.168 22.7695 72.4336 22.9805C72.6992 23.1914 73.0378 23.2969 73.4492 23.2969ZM78.4971 20.3906V24H77.5752V18H78.4658V18.9375H78.5439C78.6846 18.6328 78.8981 18.388 79.1846 18.2031C79.471 18.0156 79.8408 17.9219 80.2939 17.9219C80.7002 17.9219 81.0557 18.0052 81.3604 18.1719C81.665 18.3359 81.902 18.5859 82.0713 18.9219C82.2406 19.2552 82.3252 19.6771 82.3252 20.1875V24H81.4033V20.25C81.4033 19.7786 81.2809 19.4115 81.0361 19.1484C80.7913 18.8828 80.4554 18.75 80.0283 18.75C79.734 18.75 79.471 18.8138 79.2393 18.9414C79.0101 19.069 78.8291 19.2552 78.6963 19.5C78.5635 19.7448 78.4971 20.0417 78.4971 20.3906ZM89.9004 16V24H88.9316V17.0156H88.8848L86.9316 18.3125V17.3281L88.9316 16H89.9004Z" fill="white"/>
</svg>
